<svg xmlns="http://www.w3.org/2000/svg" width="18" height="17" viewBox="0 0 18 17" fill="none">
  <path d="M9.06442 16.4433C13.4919 16.4433 17.0811 12.8605 17.0811 8.44086C17.0811 4.02125 13.4919 0.438438 9.06442 0.438438C4.63696 0.438438 1.04779 4.02125 1.04779 8.44086C1.04779 12.8605 4.63696 16.4433 9.06442 16.4433Z" stroke="white" stroke-width="0.8" stroke-miterlimit="10" stroke-linecap="round" stroke-linejoin="round"/>
  <path fill-rule="evenodd" clip-rule="evenodd" d="M13.5595 5.73977C13.7691 5.94904 13.7691 6.28834 13.5595 6.49762L8.5491 11.4991C8.33945 11.7084 7.99955 11.7084 7.78991 11.4991L4.92683 8.64112C4.71718 8.43185 4.71718 8.09255 4.92683 7.88328C5.13647 7.67401 5.47637 7.67401 5.68602 7.88328L8.1695 10.3624L12.8003 5.73977C13.0099 5.5305 13.3498 5.5305 13.5595 5.73977Z" fill="white"/>
</svg>