<svg xmlns="http://www.w3.org/2000/svg" width="67" height="64" viewBox="0 0 67 64" fill="none">
  <path d="M53.3333 46.6667H50.0296L52.8941 41.6538C54.164 39.4316 52.5594 36.6667 50 36.6667H46.6667V23.3333C46.6667 19.9151 42.1351 18.7117 40.4392 21.6795L26.1608 46.6667H10C4.47715 46.6667 0 42.1895 0 36.6667C0 32.3082 2.7883 28.601 6.67842 27.2315C6.67061 27.0442 6.66667 26.8559 6.66667 26.6667C6.66667 19.3029 12.6362 13.3333 20 13.3333C20.2298 13.3333 20.4583 13.3391 20.6852 13.3506C22.8559 5.64677 29.9352 0 38.3333 0C48.4586 0 56.6667 8.20811 56.6667 18.3333C56.6667 19.029 56.6279 19.7157 56.5525 20.3912C62.3611 21.8313 66.6667 27.0795 66.6667 33.3333C66.6667 40.6971 60.6971 46.6667 53.3333 46.6667Z" fill="#DFA12E"/>
  <path d="M30 46.6667H36.6667V63.3333L50 40H43.3333V23.3333L30 46.6667Z" fill="#DFA12E"/>
  <path d="M25.1724 63.3333H21.4943L21.8621 59.2593L18.5057 61.6204L16.6667 58.3796L20.3448 56.6667L16.6667 54.9537L18.5057 51.713L21.8621 54.0741L21.4943 50H25.1724L24.8046 54.0741L28.1609 51.713L30 54.9537L26.3218 56.6667L30 58.3796L28.1609 61.6204L24.8046 59.2593L25.1724 63.3333Z" fill="#DFA12E"/>
</svg>