<svg xmlns="http://www.w3.org/2000/svg" width="66" height="63" viewBox="0 0 66 63" fill="none">
  <path d="M20.1667 0H20.185C21.1933 0 22 0.803478 22 1.80783V3.57913C22 4.58348 21.1933 5.38696 20.1667 5.3687H20.1483C19.14 5.3687 18.3333 4.56522 18.3333 3.56087V1.80783C18.3333 0.803478 19.14 0 20.1667 0Z" fill="#DFA12E"/>
  <path d="M9.25833 6.55565L8.54333 5.84348C7.82833 5.13131 6.67333 5.14957 5.97667 5.84348L5.95833 5.86174C5.24333 6.57391 5.24333 7.72435 5.95833 8.41826L6.67333 9.13044C7.38833 9.84261 8.525 9.84261 9.24 9.13044L9.25833 9.11217C9.97333 8.41826 9.97333 7.24957 9.25833 6.55565Z" fill="#DFA12E"/>
  <path d="M3.685 18.1696H1.815C0.806667 18.1696 0 18.973 0 19.9774V19.9957C0 21 0.806667 21.8035 1.815 21.8035H3.66667C4.69333 21.8217 5.5 21.0183 5.5 20.0139V19.9957C5.5 18.973 4.69333 18.1696 3.685 18.1696Z" fill="#DFA12E"/>
  <path d="M34.375 5.86174C33.66 5.14957 32.505 5.14957 31.79 5.84348L31.075 6.55565C30.36 7.26783 30.36 8.41826 31.075 9.11217L31.0933 9.13044C31.8083 9.84261 32.9633 9.84261 33.66 9.13044L34.375 8.41826C35.09 7.70609 35.09 6.57391 34.375 5.86174Z" fill="#DFA12E"/>
  <path d="M9.16667 19.9957C9.16667 13.9513 14.0983 9.03913 20.1667 9.03913C24.332 9.03913 27.9617 11.3535 29.8287 14.7597C27.7 16.645 26.1095 19.1199 25.3153 21.9273C25.1281 21.9178 24.9396 21.913 24.75 21.913C19.9322 21.913 15.8379 24.998 14.3494 29.2929C11.2388 27.3559 9.16667 23.9136 9.16667 19.9957Z" fill="#DFA12E"/>
  <path d="M5.95833 34.1296C6.67333 34.8417 7.82833 34.8417 8.54333 34.1296L9.25833 33.4174C9.97333 32.7052 9.955 31.5548 9.25833 30.8609L9.24 30.8426C8.525 30.1304 7.37 30.1304 6.655 30.8426L5.94 31.5548C5.24333 32.2852 5.24333 33.4174 5.95833 34.1296Z" fill="#DFA12E"/>
  <path d="M55 52.0435H19.25C14.6937 52.0435 11 48.3644 11 43.8261C11 40.2446 13.3003 37.1982 16.5097 36.0729C16.5033 35.9189 16.5 35.7642 16.5 35.6087C16.5 29.5576 21.4249 24.6522 27.5 24.6522C27.6896 24.6522 27.8781 24.657 28.0653 24.6664C29.8561 18.3358 35.6965 13.6957 42.625 13.6957C50.9783 13.6957 57.75 20.4406 57.75 28.7609C57.75 29.3325 57.718 29.8968 57.6558 30.4519C62.4479 31.6353 66 35.9479 66 41.087C66 47.1381 61.0751 52.0435 55 52.0435Z" fill="#DFA12E"/>
  <path d="M30.7752 54.7826H26.9748C25.9527 54.7826 25.2879 55.854 25.745 56.7647L28.875 63L32.0051 56.7647C32.4622 55.854 31.7974 54.7826 30.7752 54.7826Z" fill="#DFA12E"/>
  <path d="M33.5723 61.2898L35.4527 55.671C35.6303 55.1405 36.1287 54.7826 36.6902 54.7826C37.5806 54.7826 38.2093 55.6514 37.9277 56.4928L36.0473 62.1116C35.8698 62.6421 35.3713 63 34.8098 63C33.9195 63 33.2908 62.1312 33.5723 61.2898Z" fill="#DFA12E"/>
  <path d="M39.0723 61.2898L40.9527 55.671C41.1303 55.1405 41.6287 54.7826 42.1902 54.7826C43.0806 54.7826 43.7093 55.6514 43.4277 56.4928L41.5473 62.1116C41.3698 62.6421 40.8713 63 40.3098 63C39.4195 63 38.7908 62.1312 39.0723 61.2898Z" fill="#DFA12E"/>
  <path d="M46.4527 55.671L44.5723 61.2898C44.2908 62.1312 44.9195 63 45.8098 63C46.3713 63 46.8698 62.6421 47.0473 62.1116L48.9277 56.4928C49.2093 55.6514 48.5806 54.7826 47.6902 54.7826C47.1287 54.7826 46.6303 55.1405 46.4527 55.671Z" fill="#DFA12E"/>
</svg>