<svg xmlns="http://www.w3.org/2000/svg" width="270" height="227" viewBox="0 0 270 227" fill="none">
  <path d="M104.207 28.7693L101.6 20.6031C98.9929 12.4369 103.617 3.8007 111.57 1.25338L111.779 1.18634C119.941 -1.42802 128.639 3.05616 131.108 11.1512L133.715 19.3174C136.322 27.4836 131.907 36.0527 123.745 38.6671L123.536 38.7341C115.512 41.4196 106.676 36.8643 104.207 28.7693Z" fill="url(#paint0_linear_1_104)"/>
  <path d="M213.663 32.0216L220.926 17.924C224.843 10.3223 234.051 7.37277 241.645 11.2875L241.783 11.3587C249.376 15.2735 252.317 24.4866 248.401 32.0883L241.208 46.0477C237.359 53.8588 228.151 56.8083 220.557 52.8935L220.419 52.8224C212.688 48.8364 209.746 39.6233 213.663 32.0216Z" fill="url(#paint1_linear_1_104)"/>
  <path d="M12.2008 85.591L12.272 85.4528C16.2599 77.7129 25.4679 74.7634 33.0613 78.6781L46.3153 85.5112C53.9086 89.4259 56.85 98.6391 52.9334 106.241L52.8622 106.379C49.0124 114.19 39.8043 117.14 32.211 113.225L18.819 106.321C11.2256 102.406 8.28417 93.1927 12.2008 85.591Z" fill="url(#paint2_linear_1_104)"/>
  <path d="M1.40071 215.415C-1.20645 207.249 3.2799 198.542 11.3035 195.856L19.4652 193.242C27.6268 190.627 36.3247 195.112 38.7938 203.207L38.8607 203.416C41.4678 211.582 36.9815 220.29 28.891 222.766L20.7293 225.38C12.5677 227.994 4.00786 223.581 1.40071 215.415Z" fill="url(#paint3_linear_1_104)"/>
  <path d="M80.6126 120.686C104.184 74.9374 160.478 56.9051 206.177 80.4648C235.799 95.7362 253.775 124.775 256.338 155.776C218.085 150.256 178.857 169.098 160.143 205.419C159.407 206.848 158.711 208.288 158.055 209.736C133.745 204.78 108.855 207.125 86.3332 215.824C67.832 188.472 64.4334 152.087 80.6126 120.686Z" fill="url(#paint4_linear_1_104)"/>
  <path d="M325.499 111.369C328.106 119.535 323.619 128.243 315.458 130.857L307.296 133.471C299.134 136.086 290.508 131.463 287.967 123.506L287.901 123.297C285.293 115.131 289.78 106.423 297.941 103.809L306.103 101.195C314.332 98.7898 322.891 103.203 325.499 111.369Z" fill="url(#paint5_linear_1_104)"/>
  <defs>
    <linearGradient id="paint0_linear_1_104" x1="22.8025" y1="65.0147" x2="354.119" y2="231.773" gradientUnits="userSpaceOnUse">
      <stop stop-color="#DC9F2E"/>
      <stop offset="1" stop-color="#DC9F2E" stop-opacity="0"/>
    </linearGradient>
    <linearGradient id="paint1_linear_1_104" x1="22.8025" y1="65.0147" x2="354.119" y2="231.773" gradientUnits="userSpaceOnUse">
      <stop stop-color="#DC9F2E"/>
      <stop offset="1" stop-color="#DC9F2E" stop-opacity="0"/>
    </linearGradient>
    <linearGradient id="paint2_linear_1_104" x1="22.8025" y1="65.0147" x2="354.119" y2="231.773" gradientUnits="userSpaceOnUse">
      <stop stop-color="#DC9F2E"/>
      <stop offset="1" stop-color="#DC9F2E" stop-opacity="0"/>
    </linearGradient>
    <linearGradient id="paint3_linear_1_104" x1="22.8025" y1="65.0147" x2="354.119" y2="231.773" gradientUnits="userSpaceOnUse">
      <stop stop-color="#DC9F2E"/>
      <stop offset="1" stop-color="#DC9F2E" stop-opacity="0"/>
    </linearGradient>
    <linearGradient id="paint4_linear_1_104" x1="22.8025" y1="65.0147" x2="354.119" y2="231.773" gradientUnits="userSpaceOnUse">
      <stop stop-color="#DC9F2E"/>
      <stop offset="1" stop-color="#DC9F2E" stop-opacity="0"/>
    </linearGradient>
    <linearGradient id="paint5_linear_1_104" x1="22.8025" y1="65.0147" x2="354.119" y2="231.773" gradientUnits="userSpaceOnUse">
      <stop stop-color="#DC9F2E"/>
      <stop offset="1" stop-color="#DC9F2E" stop-opacity="0"/>
    </linearGradient>
  </defs>
</svg>